
<!DOCTYPE svg PUBLIC "-//W3C//DTD SVG 20010904//EN"
 "http://www.w3.org/TR/2001/REC-SVG-20010904/DTD/svg10.dtd">
<svg version="1.0" xmlns="http://www.w3.org/2000/svg"
 width="1280.000000pt" height="873.000000pt" viewBox="0 0 1280.000000 873.000000"
 preserveAspectRatio="xMidYMid meet">
<metadata>
Created by potrace 1.15, written by Peter Selinger 2001-2017
</metadata>
<g transform="translate(0.000000,873.000000) scale(0.100000,-0.100000)"
fill="#000000" stroke="none">
<path d="M6565 7785 c-5 -2 -76 -9 -157 -15 l-148 -13 -177 -113 -178 -113
-64 -233 c-35 -128 -65 -234 -66 -236 -1 -2 -48 15 -103 37 l-100 40 -83 -32
-84 -33 -12 -69 c-6 -39 -12 -77 -12 -85 -1 -8 29 -51 66 -94 l68 -79 117 6
117 6 74 -82 c88 -97 147 -205 147 -269 0 -30 8 -55 25 -80 30 -45 30 -49 5
-123 -13 -38 -20 -84 -20 -134 0 -74 -23 -161 -42 -161 -5 0 -23 7 -40 16
l-32 17 22 18 22 17 -52 133 -53 133 -140 46 -139 45 -17 70 c-17 69 -19 72
-113 160 l-95 90 -11 72 c-11 67 -10 80 14 162 14 49 26 95 26 101 0 6 -18 38
-40 70 -43 64 -34 59 -171 80 -65 10 -69 9 -157 -28 l-90 -37 -92 -115 -92
-115 6 -109 6 -108 -60 -137 -61 -136 -106 -81 c-84 -64 -130 -91 -214 -125
l-106 -43 -63 -151 -63 -150 17 -105 c9 -58 16 -108 16 -112 0 -4 -51 -45
-113 -91 l-112 -84 -24 -107 -24 -108 -67 -43 c-99 -64 -140 -102 -140 -134 0
-14 -6 -52 -14 -83 l-13 -57 53 -35 c36 -24 85 -43 153 -61 55 -14 104 -25
108 -25 5 0 51 31 102 68 l93 68 57 -7 c31 -4 161 -8 289 -8 129 -1 232 -5
232 -10 0 -5 -38 -56 -85 -115 l-85 -105 0 -80 c0 -94 1 -95 105 -105 l71 -6
68 69 c61 62 78 73 155 100 76 27 358 81 424 81 13 0 77 -22 144 -49 140 -57
213 -76 251 -66 38 9 139 72 188 117 40 37 40 37 85 25 25 -7 100 -43 166 -82
101 -59 127 -80 169 -133 l49 -62 36 -181 c26 -128 39 -223 43 -323 5 -102 14
-167 32 -236 25 -92 25 -98 14 -230 -23 -273 -69 -573 -126 -816 -31 -132 -58
-243 -61 -249 -4 -5 -48 -77 -99 -160 -86 -138 -103 -159 -218 -267 -124 -116
-127 -118 -318 -215 -184 -93 -199 -99 -326 -124 -199 -40 -409 -111 -277 -94
125 16 532 97 606 121 53 17 187 82 369 180 157 84 293 156 303 160 34 13 -99
-187 -171 -255 -103 -98 -226 -187 -330 -238 -60 -29 -115 -66 -153 -101 -95
-87 -94 -100 3 -48 204 108 263 135 429 191 l175 59 110 142 c60 79 112 143
116 143 3 1 4 -34 2 -76 -2 -43 -7 -135 -10 -204 l-6 -125 -72 -100 c-60 -83
-104 -128 -277 -279 -114 -99 -205 -181 -204 -183 1 -1 85 36 186 82 l183 84
60 88 c57 82 68 92 187 171 70 46 130 91 134 101 4 9 9 55 12 102 5 83 7 88
71 195 36 61 69 115 74 121 6 8 70 -30 212 -127 141 -96 228 -148 282 -169
123 -48 124 -49 124 -67 0 -10 9 -37 19 -60 17 -35 26 -44 63 -53 54 -15 130
-53 148 -75 8 -10 26 -22 40 -27 63 -24 363 -128 359 -123 -3 2 -78 51 -166
107 -157 100 -164 106 -246 209 -75 94 -95 112 -168 154 -67 39 -239 164 -284
208 -6 6 7 7 37 3 26 -4 94 -2 151 5 l105 11 100 -45 100 -46 88 34 c49 19 98
35 110 35 11 0 99 -16 194 -35 95 -19 180 -35 187 -35 8 0 -43 43 -113 95 -73
54 -135 93 -144 91 -8 -3 -67 -12 -130 -21 -114 -16 -116 -16 -252 9 l-136 25
-235 123 -234 123 -61 160 -61 160 -27 388 c-26 369 -27 399 -14 590 11 173
18 225 51 360 22 87 48 227 58 311 14 113 24 161 40 186 14 24 21 52 21 88 0
76 35 143 117 224 l68 67 120 32 120 33 179 -23 179 -23 139 -75 c92 -50 163
-81 215 -95 167 -42 149 -31 189 -111 20 -40 37 -73 38 -74 1 -2 88 -12 192
-24 164 -18 207 -26 324 -65 113 -37 147 -44 210 -43 137 1 159 8 245 82 76
65 79 66 253 122 98 31 180 60 184 64 8 7 -13 86 -27 100 -6 5 -33 18 -61 29
-44 16 -69 19 -172 14 -120 -5 -121 -5 -211 32 -50 20 -98 36 -106 36 -8 0
-68 -22 -134 -49 l-120 -49 -54 61 c-76 88 -76 83 -10 114 32 16 93 53 136 85
l79 56 86 -39 86 -40 43 48 c72 82 72 83 25 155 -24 36 -87 104 -149 160
l-108 98 -75 0 c-67 0 -97 -8 -277 -70 l-203 -69 -116 49 c-64 28 -123 50
-132 50 -9 0 -90 -21 -180 -46 -129 -36 -167 -43 -178 -33 -12 10 -8 18 24 53
20 22 65 77 99 121 34 44 95 114 135 156 l73 77 125 16 c162 21 155 21 203
-18 40 -32 47 -34 148 -40 l106 -6 30 68 31 69 98 15 c97 15 99 15 157 -9 32
-13 87 -27 122 -30 l64 -6 71 68 c38 38 70 75 70 83 0 8 -9 45 -20 81 l-19 66
-76 38 c-69 34 -82 37 -159 37 l-84 0 -20 88 c-11 48 -23 110 -27 138 -6 47
-12 57 -91 135 -80 80 -87 89 -125 189 -96 247 -119 293 -171 346 l-50 51 -97
-24 -98 -25 -144 50 -144 49 -40 122 -40 122 -110 104 -111 103 -198 55 -199
55 -191 -88 -191 -87 -45 67 c-50 74 -77 109 -101 128 -15 12 -367 103 -392
101 -7 0 -16 -2 -22 -4z m1640 -1409 c22 -16 42 -31 44 -32 5 -4 -40 -74 -47
-74 -10 1 -94 126 -110 163 -35 81 -33 83 21 27 29 -30 70 -68 92 -84z m-940
-120 l32 -12 -53 -57 -53 -57 -96 67 c-52 37 -95 70 -95 74 0 4 18 23 40 43
l40 36 77 -41 c41 -23 90 -47 108 -53z m1085 14 c15 -11 78 -31 140 -46 93
-22 127 -35 188 -74 l74 -47 -47 -38 -46 -38 -37 20 c-20 12 -98 37 -172 57
-100 28 -142 44 -162 63 -16 15 -28 30 -28 35 0 11 49 88 56 88 3 0 18 -9 34
-20z m-2150 -70 c68 -52 92 -63 191 -93 l114 -33 91 -163 c88 -157 169 -261
202 -261 25 0 6 -316 -30 -500 -16 -85 -31 -156 -33 -158 -1 -1 -60 103 -130
233 -83 155 -144 254 -175 288 -39 44 -46 55 -38 73 8 16 3 35 -21 82 -30 59
-34 62 -134 116 -57 31 -111 64 -121 75 -11 12 -21 50 -28 108 -10 82 -9 99
12 181 12 50 19 96 15 101 -13 22 8 10 85 -49z m1345 13 c95 -18 231 -88 274
-140 46 -56 81 -127 105 -216 13 -45 40 -120 60 -165 l37 -82 -35 -67 c-20
-38 -57 -94 -82 -126 l-46 -57 -31 22 c-28 20 -53 24 -187 34 l-155 11 -103
-35 c-116 -40 -115 -45 13 -56 51 -4 117 -20 183 -43 57 -19 102 -37 100 -38
-2 -2 -48 -19 -103 -38 -97 -33 -106 -34 -302 -41 -112 -4 -203 -5 -203 -3 0
3 24 41 54 84 29 43 77 124 105 181 l52 104 72 -7 c91 -8 239 26 345 79 70 35
74 39 108 109 l36 73 -44 88 -44 88 -125 54 c-119 51 -128 53 -219 55 -52 1
-108 4 -124 8 l-29 6 28 35 c16 19 45 52 64 73 40 42 33 42 196 10z m1370
-162 c45 -16 57 -27 113 -106 34 -49 59 -92 55 -95 -10 -10 -142 -44 -147 -39
-2 2 -20 36 -39 75 -35 70 -36 70 -96 89 -34 10 -61 22 -61 26 0 14 84 69 104
68 12 0 44 -8 71 -18z m-3612 -390 c6 -6 -1 -16 -24 -30 -19 -12 -39 -21 -45
-21 -10 0 -124 113 -124 123 0 7 181 -60 193 -72z m1727 -30 c0 -9 -79 -111
-86 -111 -2 0 -4 27 -4 60 l0 60 45 0 c25 0 45 -4 45 -9z m-1511 -5 c-2 -2
-33 -27 -68 -54 l-65 -50 -53 26 c-29 14 -53 29 -53 33 0 11 53 29 115 38 67
10 131 13 124 7z m1704 -46 c4 -3 -10 -26 -30 -50 l-38 -44 -7 44 c-3 25 -7
58 -7 73 l-1 29 38 -23 c20 -12 40 -25 45 -29z m-934 -203 l24 -40 -37 6 c-21
3 -90 11 -154 18 l-117 12 -52 -27 c-46 -23 -64 -26 -153 -26 -91 0 -106 3
-146 26 -24 14 -44 29 -44 33 0 4 12 18 26 32 26 24 26 24 304 29 153 3 282 9
287 13 8 9 19 -5 62 -76z m-697 -123 c22 -12 75 -19 177 -24 96 -5 170 -15
216 -28 39 -12 89 -26 112 -32 l43 -11 82 -162 c46 -89 84 -165 86 -169 3 -6
-219 69 -227 78 -3 2 5 12 18 20 12 9 34 26 47 38 25 21 26 22 12 71 -14 47
-17 50 -82 78 l-68 28 -72 -22 c-45 -14 -114 -25 -191 -30 l-120 -7 -51 50
-52 50 15 44 c8 24 17 44 19 44 3 0 19 -7 36 -16z m2163 -165 c4 -17 4 -33 1
-36 -3 -3 -31 -2 -62 2 l-57 7 49 29 c27 16 52 29 56 29 3 0 9 -14 13 -31z
m283 -233 c107 -23 113 -25 186 -85 65 -53 97 -93 84 -106 -4 -5 -379 203
-393 217 -7 8 -6 9 1 5 7 -4 62 -18 122 -31z"/>
<path d="M4105 3849 c-61 -5 -79 -11 -140 -51 l-70 -46 -25 -91 c-13 -50 -29
-91 -35 -91 -5 1 -23 7 -40 14 -31 14 -82 4 -97 -18 -17 -24 -7 -70 19 -98 22
-23 35 -28 74 -28 42 0 50 -4 82 -39 22 -24 39 -55 43 -78 4 -21 11 -43 15
-49 13 -16 -12 -164 -27 -164 -7 0 -12 8 -12 18 1 9 -6 38 -16 64 -17 44 -22
48 -74 66 -47 15 -57 23 -64 48 -4 16 -26 47 -48 69 -43 42 -49 69 -30 134 13
46 -11 78 -65 86 -55 9 -104 -14 -149 -69 -32 -40 -37 -52 -35 -93 2 -58 -29
-133 -68 -168 -16 -14 -56 -39 -89 -55 -58 -28 -63 -33 -84 -90 -17 -45 -21
-71 -16 -103 7 -42 6 -44 -37 -75 -35 -25 -47 -41 -56 -75 -8 -34 -19 -50 -50
-70 -29 -19 -40 -35 -45 -62 -8 -42 5 -58 64 -75 50 -14 57 -13 96 16 34 26
35 26 149 19 l116 -7 -36 -43 c-34 -42 -41 -67 -29 -99 10 -27 66 -20 98 13
29 30 64 43 165 61 59 10 68 9 127 -14 81 -33 92 -33 142 4 23 17 47 30 54 30
20 0 110 -55 135 -82 24 -26 53 -140 53 -211 0 -23 5 -62 11 -87 20 -83 7
-228 -38 -429 -29 -130 -74 -213 -156 -288 -60 -55 -183 -116 -277 -137 -79
-17 -135 -41 -70 -30 219 39 239 46 388 127 56 30 102 52 102 47 0 -5 -15 -28
-33 -51 -38 -50 -113 -111 -188 -154 -88 -50 -66 -57 33 -11 51 25 111 50 133
56 30 9 50 25 80 65 22 30 42 54 45 55 3 0 3 -35 2 -77 -5 -106 -15 -120 -207
-286 -15 -13 -4 -11 40 8 78 34 100 49 120 82 9 16 40 44 68 63 45 31 53 41
57 76 7 50 57 137 73 128 7 -4 40 -27 75 -51 34 -24 83 -53 108 -64 26 -12 49
-30 54 -43 5 -13 23 -29 41 -35 18 -6 40 -17 48 -25 15 -13 141 -59 141 -51 0
2 -28 21 -62 43 -35 22 -72 54 -83 72 -11 17 -50 51 -86 75 -101 68 -104 75
-31 75 36 0 76 -7 96 -16 31 -15 38 -16 73 -1 34 13 47 14 104 2 93 -20 98
-19 49 18 -43 31 -48 32 -145 32 l-100 1 -105 54 -104 55 -25 60 c-47 117 -57
462 -18 625 8 36 20 90 26 120 22 122 29 142 61 175 64 66 199 70 320 10 36
-18 85 -38 108 -44 30 -8 46 -20 57 -41 13 -25 22 -29 72 -34 32 -4 91 -15
130 -26 107 -29 163 -27 196 8 18 18 54 37 102 52 57 18 75 28 75 42 0 25 -48
46 -94 40 -22 -2 -60 3 -90 13 -49 16 -53 16 -97 -3 l-47 -20 -27 28 -27 28
33 18 c19 9 45 25 58 35 21 17 26 17 52 4 38 -20 44 -19 63 11 16 24 16 27 -1
53 -32 49 -98 101 -129 101 -16 0 -65 -12 -108 -26 -80 -27 -80 -27 -132 -9
-50 17 -56 17 -120 1 -36 -9 -69 -15 -71 -12 -10 9 120 156 141 161 73 14 104
14 116 0 8 -9 30 -15 60 -15 40 0 48 4 58 24 14 30 67 43 113 27 50 -17 73
-13 103 18 52 55 10 114 -89 123 -28 3 -31 7 -40 55 -7 36 -20 62 -42 85 -18
19 -44 63 -59 98 -14 36 -35 80 -46 98 -20 32 -22 33 -68 27 -34 -5 -65 -1
-103 11 -52 16 -55 18 -71 69 -23 74 -86 125 -187 152 l-76 21 -73 -34 c-40
-19 -74 -34 -75 -34 -1 0 -14 18 -29 39 -25 35 -35 41 -104 58 -56 13 -96 17
-147 12z m718 -585 c-7 -20 -9 -18 -38 23 -35 53 -31 63 9 24 19 -19 32 -40
29 -47z m-410 -8 c36 -22 36 -23 19 -39 -24 -22 -31 -21 -66 8 -25 20 -28 26
-17 39 17 20 18 20 64 -8z m473 -11 c16 -8 38 -15 49 -15 11 0 37 -11 58 -23
34 -21 37 -25 23 -37 -14 -10 -26 -10 -74 4 -105 32 -109 35 -96 70 7 19 5 19
40 1z m-874 -22 c10 -9 42 -24 70 -33 48 -16 56 -23 84 -74 16 -31 44 -71 62
-89 l32 -33 -10 -100 c-5 -55 -13 -111 -18 -124 -8 -22 -13 -16 -57 66 -26 49
-56 98 -65 109 -10 11 -21 35 -25 52 -5 26 -17 38 -58 60 -50 27 -52 30 -55
73 -4 48 5 110 15 110 4 0 15 -7 25 -17z m593 -17 c54 -24 67 -43 114 -165
l21 -55 -25 -42 c-29 -50 -43 -60 -58 -45 -15 15 -146 13 -182 -4 -30 -13 -30
-13 -4 -14 14 -1 50 -8 79 -17 l54 -16 -32 -14 c-18 -7 -74 -16 -124 -20 l-92
-7 23 34 c12 19 32 53 44 77 18 37 25 42 52 41 71 -5 164 34 183 75 9 21 9 33
-5 62 -20 42 -72 68 -156 78 l-57 7 21 30 c18 26 25 29 57 23 21 -3 60 -16 87
-28z m510 -49 c1 -1 12 -17 25 -36 19 -27 20 -35 9 -42 -25 -15 -46 -10 -57
16 -7 14 -24 30 -38 35 -22 9 -24 13 -13 26 9 11 22 14 43 10 16 -4 30 -7 31
-9z m-1465 -148 c13 -6 12 -9 -3 -15 -13 -5 -26 0 -40 16 l-22 22 25 -7 c14
-4 32 -11 40 -16z m67 -34 c-23 -21 -32 -23 -49 -14 -26 14 -13 26 32 32 19 2
37 4 40 5 3 1 -8 -10 -23 -23z m623 16 c0 -5 -7 -14 -15 -21 -13 -10 -15 -9
-15 9 0 12 6 21 15 21 8 0 15 -4 15 -9z m76 -12 c3 -6 -1 -18 -10 -27 -15 -15
-16 -14 -16 11 0 27 13 36 26 16z m-376 -63 c0 -2 2 -11 6 -19 4 -11 -8 -14
-63 -15 -37 0 -89 -3 -114 -7 -56 -8 -97 8 -78 31 9 11 39 14 130 14 66 0 119
-2 119 -4z m-190 -81 c123 -14 138 -22 171 -87 17 -33 28 -62 25 -65 -5 -5
-62 14 -75 24 -3 2 4 9 13 16 44 32 -22 88 -78 67 -37 -14 -129 -13 -144 2 -7
7 -12 22 -12 35 0 19 4 23 23 19 12 -3 47 -8 77 -11z m785 -55 c3 -5 -3 -10
-15 -10 -12 0 -18 5 -15 10 3 6 10 10 15 10 5 0 12 -4 15 -10z m183 -127 c52
-39 37 -46 -25 -11 -76 41 -87 52 -43 43 19 -4 50 -18 68 -32z"/>
</g>
</svg>
