
<!-- Created with Inkscape (http://www.inkscape.org/) -->
<svg xmlns:inkscape="http://www.inkscape.org/namespaces/inkscape" xmlns:rdf="http://www.w3.org/1999/02/22-rdf-syntax-ns#" xmlns="http://www.w3.org/2000/svg" xmlns:cc="http://web.resource.org/cc/" xmlns:xlink="http://www.w3.org/1999/xlink" xmlns:dc="http://purl.org/dc/elements/1.1/" xmlns:svg="http://www.w3.org/2000/svg" xmlns:sodipodi="http://sodipodi.sourceforge.net/DTD/sodipodi-0.dtd" xmlns:ns1="http://sozi.baierouge.fr" id="svg20856" viewBox="0 0 445.04 451.59" version="1.0" inkscape:version="0.91 r13725">
  <defs id="defs3">
    <radialGradient id="radialGradient5729" xlink:href="#linearGradient4177" gradientUnits="userSpaceOnUse" cy="267.05" cx="928.18" gradientTransform="matrix(1.4404 0 3.715e-7 .63109 -441.14 109.09)" r="68"/>
    <radialGradient id="radialGradient5727" xlink:href="#linearGradient6657" gradientUnits="userSpaceOnUse" cy="-3" cx="753" gradientTransform="matrix(1.2863 0 0 .55102 -64.396 304.65)" r="49"/>
    <radialGradient id="radialGradient3661" fx="556.18" fy="212.64" xlink:href="#linearGradient5683" gradientUnits="userSpaceOnUse" cy="236.59" cx="572.29" gradientTransform="matrix(-.22832 .051622 -.14112 -.62414 118.28 834.28)" r="81.78"/>
    <radialGradient id="radialGradient3659" fx="556.18" fy="212.64" xlink:href="#linearGradient5683" gradientUnits="userSpaceOnUse" cy="236.59" cx="572.29" gradientTransform="matrix(.17192 .15887 .43428 -.46997 -309.19 705.91)" r="81.78"/>
    <radialGradient id="radialGradient3657" fx="556.18" fy="212.64" xlink:href="#linearGradient5683" gradientUnits="userSpaceOnUse" cy="236.59" cx="572.29" gradientTransform="matrix(.095346 .29359 .80258 -.26064 -366.73 572.12)" r="81.78"/>
    <radialGradient id="radialGradient3655" fx="556.18" fy="212.64" xlink:href="#linearGradient5683" gradientUnits="userSpaceOnUse" cy="236.59" cx="572.29" gradientTransform="matrix(-.17192 .15887 -.43428 -.46997 170.66 732.78)" r="81.78"/>
    <radialGradient id="radialGradient3653" fx="556.18" fy="212.64" xlink:href="#linearGradient5683" gradientUnits="userSpaceOnUse" cy="236.59" cx="572.29" gradientTransform="matrix(-.095346 .29359 -.80258 -.26064 228.2 598.99)" r="81.78"/>
    <radialGradient id="radialGradient3651" fx="556.18" fy="212.64" xlink:href="#linearGradient5683" gradientUnits="userSpaceOnUse" cy="236.59" cx="572.29" gradientTransform="matrix(-.22885 .20716 -.56629 -.62560 203.28 657.02)" r="81.78"/>
    <radialGradient id="radialGradient3649" fx="556.18" fy="212.64" xlink:href="#linearGradient5683" gradientUnits="userSpaceOnUse" cy="236.59" cx="572.29" gradientTransform="matrix(.15434 .26733 .73079 -.42192 -378.54 632.69)" r="81.78"/>
    <radialGradient id="radialGradient3647" fx="556.18" fy="212.64" xlink:href="#linearGradient5683" gradientUnits="userSpaceOnUse" cy="236.59" cx="572.29" gradientTransform="matrix(-.26733 .15434 -.42192 -.73079 171.55 777.2)" r="81.78"/>
    <radialGradient id="radialGradient3645" fx="556.18" fy="212.64" xlink:href="#linearGradient5683" gradientUnits="userSpaceOnUse" cy="236.59" cx="572.29" gradientTransform="matrix(.11976 .21314 .73567 -.41335 -340.31 599.32)" r="81.78"/>
    <radialGradient id="radialGradient3643" fx="556.18" fy="212.64" xlink:href="#linearGradient5683" gradientUnits="userSpaceOnUse" cy="236.59" cx="572.29" gradientTransform="matrix(-.17202 .25631 -.70067 -.47024 248.74 605.8)" r="81.78"/>
    <radialGradient id="radialGradient3641" fx="556.18" fy="212.64" xlink:href="#linearGradient5683" gradientUnits="userSpaceOnUse" cy="236.59" cx="572.29" gradientTransform="matrix(-.24978 -9.54e-8 4.7536e-7 -.68281 106.46 837.32)" r="81.78"/>
    <linearGradient id="linearGradient5683">
      <stop id="stop5685" style="stop-color:#d8f055" offset="0"/>
      <stop id="stop5689" style="stop-color:#778e2b" offset=".51351"/>
      <stop id="stop5687" style="stop-color:#446313" offset="1"/>
    </linearGradient>
    <radialGradient id="radialGradient3639" fx="556.18" fy="212.64" xlink:href="#linearGradient5683" gradientUnits="userSpaceOnUse" cy="236.59" cx="572.29" gradientTransform="matrix(-.31315 .18080 -.49423 -.85603 283.43 772.61)" r="81.78"/>
    <radialGradient id="radialGradient5719" fx="-60.35" fy="698.08" gradientUnits="userSpaceOnUse" cy="716.21" cx="-61.47" gradientTransform="matrix(1.2258 -.18767 .50177 3.2774 -345.49 -1642.6)" r="40.99">
      <stop id="stop5733" style="stop-color:#807b5e" offset="0"/>
      <stop id="stop5735" style="stop-color:#3d3c37" offset="1"/>
    </radialGradient>
    <radialGradient id="radialGradient6613" xlink:href="#linearGradient4177" gradientUnits="userSpaceOnUse" cy="255.11" cx="928.54" gradientTransform="matrix(1.6517 0 4.26e-7 .57017 -600.77 125.36)" r="68"/>
    <radialGradient id="radialGradient6611" xlink:href="#linearGradient6657" gradientUnits="userSpaceOnUse" cy="-3" cx="753" r="49"/>
    <radialGradient id="radialGradient3601" xlink:href="#linearGradient5251" gradientUnits="userSpaceOnUse" cy="273.48" cx="703.64" gradientTransform="matrix(-.15407 -.19350 1.231 -.96281 1001.6 575.11)" r="125.26"/>
    <linearGradient id="linearGradient3599" y2="186.77" xlink:href="#linearGradient5269" gradientUnits="userSpaceOnUse" x2="390.94" gradientTransform="matrix(.66962 .84899 -.73207 .56523 1118.8 -321.84)" y1="203.94" x1="438.82"/>
    <linearGradient id="linearGradient3593" y2="384.82" xlink:href="#linearGradient3340" gradientUnits="userSpaceOnUse" x2="1306.7" y1="313.91" x1="1325.5"/>
    <linearGradient id="linearGradient3591" y2="371.74" xlink:href="#linearGradient6551" gradientUnits="userSpaceOnUse" x2="1302.3" y1="314.98" x1="1310.8"/>
    <linearGradient id="linearGradient3589" y2="142.72" xlink:href="#linearGradient6539" gradientUnits="userSpaceOnUse" x2="1134.3" y1="148.74" x1="1146.9"/>
    <linearGradient id="linearGradient3587" y2="127.05" xlink:href="#linearGradient6539" gradientUnits="userSpaceOnUse" x2="1205.4" y1="127.05" x1="1166.2"/>
    <linearGradient id="linearGradient3585" y2="162.96" xlink:href="#linearGradient6539" gradientUnits="userSpaceOnUse" x2="1169.1" y1="162.96" x1="1154.4"/>
    <linearGradient id="linearGradient3583" y2="142.34" xlink:href="#linearGradient6539" gradientUnits="userSpaceOnUse" x2="1193.1" y1="150.11" x1="1175.1"/>
    <linearGradient id="linearGradient3581" y2="105.93" xlink:href="#linearGradient6539" gradientUnits="userSpaceOnUse" x2="1161" y1="109.3" x1="1150.4"/>
    <linearGradient id="linearGradient3579" y2="109.05" xlink:href="#linearGradient6539" gradientUnits="userSpaceOnUse" x2="1133.4" y1="118.56" x1="1130.4"/>
    <linearGradient id="linearGradient3577" y2="104.81" xlink:href="#linearGradient6539" gradientUnits="userSpaceOnUse" x2="1146.5" y1="110.24" x1="1137.9"/>
    <linearGradient id="linearGradient3575" y2="106.35" xlink:href="#linearGradient6539" gradientUnits="userSpaceOnUse" x2="1168.4" y1="106.35" x1="1156.2"/>
    <linearGradient id="linearGradient3573" y2="119.94" xlink:href="#linearGradient6539" gradientUnits="userSpaceOnUse" x2="1130.7" y1="127.66" x1="1129.4"/>
    <linearGradient id="linearGradient3571" y2="130.74" xlink:href="#linearGradient6539" gradientUnits="userSpaceOnUse" x2="1128.7" y1="137.11" x1="1109.7"/>
    <linearGradient id="linearGradient3569" y2="138.08" xlink:href="#linearGradient6539" gradientUnits="userSpaceOnUse" x2="1125.1" y1="149.12" x1="1132.8"/>
    <linearGradient id="linearGradient3567" y2="160.04" xlink:href="#linearGradient6539" gradientUnits="userSpaceOnUse" x2="1157.3" y1="160.04" x1="1140.3"/>
    <linearGradient id="linearGradient3565" y2="161.71" xlink:href="#linearGradient6539" gradientUnits="userSpaceOnUse" x2="1182.9" y1="166.18" x1="1175.5"/>
    <linearGradient id="linearGradient3563" y2="134.55" xlink:href="#linearGradient6539" gradientUnits="userSpaceOnUse" x2="1192.9" y1="141.27" x1="1186.1"/>
    <linearGradient id="linearGradient3561" y2="111.92" xlink:href="#linearGradient6539" gradientUnits="userSpaceOnUse" x2="1187.8" y1="118.73" x1="1177.2"/>
    <linearGradient id="linearGradient3559" y2="111.18" xlink:href="#linearGradient6539" gradientUnits="userSpaceOnUse" x2="1194.9" y1="111.18" x1="1163.7"/>
    <linearGradient id="linearGradient3557" y2="107.26" xlink:href="#linearGradient6539" gradientUnits="userSpaceOnUse" x2="1182.4" y1="107.26" x1="1160.6"/>
    <linearGradient id="linearGradient3635" y2="179.91" xlink:href="#linearGradient4014" gradientUnits="userSpaceOnUse" x2="1160.7" gradientTransform="matrix(-.12504 0 0 .12504 1077.5 263.74)" y1="159.89" x1="1075.8"/>
    <radialGradient id="radialGradient6596" xlink:href="#linearGradient5251" gradientUnits="userSpaceOnUse" cy="276.61" cx="570.69" gradientTransform="matrix(-.39897 -.36017 1.7306 -.83702 1003.2 635.43)" r="125.26"/>
    <linearGradient id="linearGradient6582" y2="204.23" xlink:href="#linearGradient5269" gradientUnits="userSpaceOnUse" x2="358.9" gradientTransform="matrix(.66962 .84899 -.73207 .56523 1118.8 -321.84)" y1="203.94" x1="438.82"/>
    <linearGradient id="linearGradient3340">
      <stop id="stop3342" style="stop-color:#c4b980" offset="0"/>
      <stop id="stop3344" style="stop-color:#b8ac68;stop-opacity:0" offset="1"/>
    </linearGradient>
    <linearGradient id="linearGradient6551">
      <stop id="stop6553" style="stop-color:#a4a05c" offset="0"/>
      <stop id="stop6555" style="stop-color:#6f6b3e" offset="1"/>
    </linearGradient>
    <linearGradient id="linearGradient6547" y2="142.34" xlink:href="#linearGradient6539" gradientUnits="userSpaceOnUse" x2="1193.1" y1="151.63" x1="1179.5"/>
    <linearGradient id="linearGradient7038" y2="130.74" xlink:href="#linearGradient6539" gradientUnits="userSpaceOnUse" x2="1128.7" y1="141.56" x1="1130.4"/>
    <linearGradient id="linearGradient7022" y2="111.92" xlink:href="#linearGradient6539" gradientUnits="userSpaceOnUse" x2="1187.8" y1="127.11" x1="1186.2"/>
    <linearGradient id="linearGradient6539">
      <stop id="stop6541" style="stop-color:#c6bc7f" offset="0"/>
      <stop id="stop6543" style="stop-color:#f1eedf" offset="1"/>
    </linearGradient>
    <linearGradient id="linearGradient6447" y2="179.91" xlink:href="#linearGradient4014" gradientUnits="userSpaceOnUse" x2="1160.7" gradientTransform="matrix(.34931 0 0 .34931 568.91 210.54)" y1="159.89" x1="1075.8"/>
    <radialGradient id="radialGradient6634" xlink:href="#linearGradient4177" gradientUnits="userSpaceOnUse" cy="255.11" cx="928.54" gradientTransform="matrix(-1.1252 0 -2.9021e-7 .53452 2031.7 146.39)" r="68"/>
    <radialGradient id="radialGradient6621" xlink:href="#linearGradient6650" gradientUnits="userSpaceOnUse" cy="-3" cx="753" r="49"/>
    <radialGradient id="radialGradient4712" xlink:href="#linearGradient6657" gradientUnits="userSpaceOnUse" cy="-3" cx="753" gradientTransform="matrix(1.298 0 0 .24476 -34.414 334.71)" r="49"/>
    <linearGradient id="linearGradient4177">
      <stop id="stop4179" style="stop-color:#b4c0ac" offset="0"/>
      <stop id="stop6322" style="stop-color:#9aa79a" offset=".41037"/>
      <stop id="stop4181" style="stop-color:#4e5b5b" offset="1"/>
    </linearGradient>
    <linearGradient id="linearGradient6657">
      <stop id="stop6659" style="stop-color:#000000" offset="0"/>
      <stop id="stop6661" style="stop-color:#4e4b32;stop-opacity:0" offset="1"/>
    </linearGradient>
    <filter id="filter7230">
      <feGaussianBlur id="feGaussianBlur7232" stdDeviation="1.0119594" inkscape:collect="always"/>
    </filter>
    <linearGradient id="linearGradient5097" y2="346.18" xlink:href="#linearGradient4108" gradientUnits="userSpaceOnUse" x2="1015.1" y1="295.14" x1="985.64"/>
    <radialGradient id="radialGradient4133" gradientUnits="userSpaceOnUse" cy="236.12" cx="930.49" gradientTransform="matrix(1.4677 0 7.2682e-7 .77180 -430.7 77.761)" r="68">
      <stop id="stop4129" style="stop-color:#c0caba" offset="0"/>
      <stop id="stop6324" style="stop-color:#9daca0" offset=".43632"/>
      <stop id="stop4131" style="stop-color:#4d5a5a" offset="1"/>
    </radialGradient>
    <radialGradient id="radialGradient3761" fx="578.03" fy="228.67" gradientUnits="userSpaceOnUse" cy="252.63" cx="594.14" gradientTransform="matrix(.53389 .27634 -.90527 1.749 455.4 -349)" r="81.78">
      <stop id="stop4311" style="stop-color:#dada96" offset="0"/>
      <stop id="stop4313" style="stop-color:#a2ac3b" offset="1"/>
    </radialGradient>
    <radialGradient id="radialGradient3759" gradientUnits="userSpaceOnUse" cy="387.59" cx="591.55" gradientTransform="matrix(.66662 -2.6346 .37532 .094969 58.374 1748)" r="53.92">
      <stop id="stop4305" style="stop-color:#c1b777" offset="0"/>
      <stop id="stop4307" style="stop-color:#59542d" offset="1"/>
    </radialGradient>
    <filter id="filter3747">
      <feGaussianBlur id="feGaussianBlur3749" stdDeviation="3.1777655" inkscape:collect="always"/>
    </filter>
    <linearGradient id="linearGradient4014">
      <stop id="stop4016" style="stop-color:#aad559" offset="0"/>
      <stop id="stop5275" style="stop-color:#506b31" offset=".67003"/>
      <stop id="stop4018" style="stop-color:#2f481c" offset="1"/>
    </linearGradient>
    <radialGradient id="radialGradient4020" fx="495.69" fy="177.9" xlink:href="#linearGradient4014" gradientUnits="userSpaceOnUse" cy="201.86" cx="511.8" gradientTransform="matrix(.70347 .53236 -1.4553 1.923 501.63 -497.62)" r="81.78"/>
    <linearGradient id="linearGradient4005">
      <stop id="stop4007" style="stop-color:#d0c898" offset="0"/>
      <stop id="stop4009" style="stop-color:#938b4c" offset="1"/>
    </linearGradient>
    <radialGradient id="radialGradient4011" xlink:href="#linearGradient4005" gradientUnits="userSpaceOnUse" cy="261.21" cx="588.24" gradientTransform="matrix(.65568 -2.3177 .35163 .099477 74.198 1543.5)" r="53.92"/>
    <linearGradient id="linearGradient4098" y2="342.47" xlink:href="#linearGradient4108" gradientUnits="userSpaceOnUse" x2="941.87" y1="187.76" x1="941.87"/>
    <filter id="filter7189">
      <feGaussianBlur id="feGaussianBlur7191" stdDeviation="1.1552372" inkscape:collect="always"/>
    </filter>
    <linearGradient id="linearGradient6650">
      <stop id="stop6652" style="stop-color:#000000" offset="0"/>
      <stop id="stop6654" style="stop-color:#858055;stop-opacity:0" offset="1"/>
    </linearGradient>
    <linearGradient id="linearGradient3832" y2="346.05" xlink:href="#linearGradient6650" gradientUnits="userSpaceOnUse" x2="137.89" y1="549.76" x1="137.89"/>
    <filter id="filter7185">
      <feGaussianBlur id="feGaussianBlur7187" stdDeviation="0.96219967" inkscape:collect="always"/>
    </filter>
    <linearGradient id="linearGradient4063" y2="290" xlink:href="#linearGradient3935" gradientUnits="userSpaceOnUse" x2="447.17" gradientTransform="matrix(-.70711 .70711 .70711 .70711 1040.6 -270.74)" y1="116" x1="446"/>
    <radialGradient id="radialGradient4066" gradientUnits="userSpaceOnUse" cy="259.07" cx="588.47" gradientTransform="matrix(.16261 -.16088 -1.1885 -1.2013 1118.2 641.79)" r="125.26">
      <stop id="stop3902" style="stop-color:#3c4d22" offset="0"/>
      <stop id="stop3904" style="stop-color:#5e781c" offset="1"/>
    </radialGradient>
    <linearGradient id="linearGradient4069" y2="198.99" gradientUnits="userSpaceOnUse" x2="385.3" gradientTransform="matrix(-.70711 .70711 .70711 .70711 1040.6 -270.74)" y1="194.28" x1="446.83">
      <stop id="stop3922" style="stop-color:#6b9223" offset="0"/>
      <stop id="stop3924" style="stop-color:#909050" offset="1"/>
    </linearGradient>
    <filter id="filter7193">
      <feGaussianBlur id="feGaussianBlur7195" stdDeviation="1.4106033" inkscape:collect="always"/>
    </filter>
    <linearGradient id="linearGradient4108">
      <stop id="stop4110" style="stop-color:#000000;stop-opacity:0" offset="0"/>
      <stop id="stop4112" style="stop-color:#000000" offset="1"/>
    </linearGradient>
    <linearGradient id="linearGradient4106" y2="301.76" xlink:href="#linearGradient4108" gradientUnits="userSpaceOnUse" x2="946.19" y1="248.1" x1="1036.2"/>
    <linearGradient id="linearGradient3935">
      <stop id="stop3937" style="stop-color:#dada96" offset="0"/>
      <stop id="stop3939" style="stop-color:#b5bf47" offset="1"/>
    </linearGradient>
    <linearGradient id="linearGradient4073" y2="224.47" xlink:href="#linearGradient3935" gradientUnits="userSpaceOnUse" x2="447.22" gradientTransform="matrix(.82740 .47296 -.41184 .70351 748.42 -172.59)" y1="73.3" x1="442.63"/>
    <linearGradient id="linearGradient5251">
      <stop id="stop5253" style="stop-color:#455927" offset="0"/>
      <stop id="stop5255" style="stop-color:#5e781c" offset="1"/>
    </linearGradient>
    <radialGradient id="radialGradient4076" xlink:href="#linearGradient5251" gradientUnits="userSpaceOnUse" cy="259.07" cx="588.47" gradientTransform="matrix(-.18977 -.10732 .68844 -1.1931 948.54 599.19)" r="125.26"/>
    <linearGradient id="linearGradient5269">
      <stop id="stop5271" style="stop-color:#6b9223" offset="0"/>
      <stop id="stop5273" style="stop-color:#baba82" offset="1"/>
    </linearGradient>
    <linearGradient id="linearGradient4079" y2="186.77" xlink:href="#linearGradient5269" gradientUnits="userSpaceOnUse" x2="390.94" gradientTransform="matrix(.82740 .47296 -.41184 .70351 748.42 -172.59)" y1="194.28" x1="446.83"/>
    <linearGradient id="linearGradient10900">
      <stop id="stop10902" style="stop-color:#dcc890" offset="0"/>
      <stop id="stop10904" style="stop-color:#fdfdfd;stop-opacity:0" offset="1"/>
    </linearGradient>
    <linearGradient id="linearGradient11066">
      <stop id="stop11068" style="stop-color:#dcc890" offset="0"/>
      <stop id="stop11070" style="stop-color:#ede2c4;stop-opacity:0" offset="1"/>
    </linearGradient>
    <radialGradient id="radialGradient22314" gradientUnits="userSpaceOnUse" cy="347.35" cx="1052" gradientTransform="matrix(.42153 0 0 .42147 -186.74 89.466)" r="38">
      <stop id="stop22360" style="stop-color:#ffffff" offset="0"/>
      <stop id="stop22362" style="stop-color:#d0c898;stop-opacity:0" offset="1"/>
    </radialGradient>
    <radialGradient id="radialGradient22317" gradientUnits="userSpaceOnUse" cy="343.34" cx="866" gradientTransform="matrix(-.25899 0 0 -.25895 505.94 311.06)" r="96">
      <stop id="stop10710" style="stop-color:#ffffff" offset="0"/>
      <stop id="stop10712" style="stop-color:#ffffff;stop-opacity:0" offset="1"/>
    </radialGradient>
    <radialGradient id="radialGradient22321" xlink:href="#linearGradient11066" gradientUnits="userSpaceOnUse" cy="343.34" cx="866" gradientTransform="matrix(-.84239 0 0 -.84226 941.33 564.31)" r="96"/>
    <radialGradient id="radialGradient22323" xlink:href="#linearGradient10900" gradientUnits="userSpaceOnUse" cy="417.34" cx="977" gradientTransform="matrix(.73066 0 0 .73055 -502.03 -29.762)" r="74.5"/>
    <radialGradient id="radialGradient23341" xlink:href="#linearGradient11066" gradientUnits="userSpaceOnUse" cy="343.34" cx="866" gradientTransform="matrix(-.29709 0 0 -.29705 403.11 414.12)" r="96"/>
    <radialGradient id="radialGradient23343" xlink:href="#linearGradient10900" gradientUnits="userSpaceOnUse" cy="417.34" cx="977" gradientTransform="matrix(.25769 0 0 .25765 -105.94 204.6)" r="74.5"/>
    <radialGradient id="radialGradient23392" xlink:href="#linearGradient4005" gradientUnits="userSpaceOnUse" cy="232.33" cx="592.46" gradientTransform="matrix(1.2828 -1.8691 .17830 .12237 -248.13 1273)" r="53.92"/>
    <radialGradient id="radialGradient23394" fx="495.69" fy="177.9" xlink:href="#linearGradient4014" gradientUnits="userSpaceOnUse" cy="201.86" cx="511.8" gradientTransform="matrix(.60150 .47548 -1.2998 1.6443 523.62 -411.32)" r="81.78"/>
    <radialGradient id="radialGradient23451" gradientUnits="userSpaceOnUse" cy="1073.7" cx="66.405" gradientTransform="matrix(1.0404e-7 .92662 -1.9892 0 2319.3 301.87)" r="178.3">
      <stop id="stop23447" style="stop-color:#90b4c0" offset="0"/>
      <stop id="stop23449" style="stop-color:#90b4c0;stop-opacity:0" offset="1"/>
    </radialGradient>
  </defs>
  <path id="path12143" style="fill:url(#radialGradient23451)" d="m46.732 363.94c-19.95 25.39 36.575 17.25 51.934 17.04 43.784-0.58 135.35-4.07 131.37 2.09-4.83 7.49-125.88-10.99-158.78 3.01-12.408 5.28-26.237 27.05 2.492 31.2 18.677 2.7 36.468-1.69 47.178 19.07 10.05 19.48 51.52 3.38 76 12.55 24.85 9.3 62.3-8.48 93.84-9.21 25.44-0.59 74.62 12.79 82.41-3.44 3.53-7.35-15.25-1.43-11.5-17.77 7.48-32.66-61.66-11.79-88.91-10.76-11.3 0.43-36.1 0.61-10.62-3.14 34.61-5.1 69.34-16.31 104.1-10.25 13.5 2.36 51.97-15.99 21.28-15.94-33.31 0.06-66.12-6.67-98.75-5.09-78.36 3.8-157.34 1.58-235.05-7.61-2.389-0.28-5.574-3.56-6.998-1.75zm154.85 34.44c-0.58 4.81-58.21 2.04-25.93 0 8.61-0.55 26.36-3.64 25.93 0zm-25.1 22.06c14.65 1.8 55.56 2.34 51.89 3.48-17.9 5.56-74.93 5.37-76.21-1.74-0.75-4.2 16.21-2.73 24.32-1.74zm146.97 3.6c43.27 2.49-53.66 11.81-22.23 1.22 7-2.36 14.83-1.65 22.23-1.22z"/>
  <g id="g23386" transform="matrix(-1.1014 -.47495 -.47495 1.1014 860.83 219.33)">
    <path id="path23388" style="fill:url(#radialGradient23392)" d="m631.08 112.52c-59.76 39.68-78.55 111.48-80.65 229.39 0.78 10.88-15.63 12.48-15.35 1.58 2.05-111.14 27.56-199.11 93.91-236.84 20.17-11.47 16.25-3.53 2.09 5.87z"/>
    <path id="path23390" style="fill:url(#radialGradient23394)" d="m628.47 87.793c-5.95 5.661-14.4 17.277-6.43 24.677 10.8-3.82 6.25-17.752 6.43-24.677zm14.63 2.635c-5.49 2.987-14.02 9.912-9.61 16.922 8.71-0.67 8.11-11.868 9.61-16.922zm-31.19 5.328c-7.12 6.754-17.22 20.684-7.69 29.534 12.93-4.57 7.48-21.26 7.69-29.534zm45.28 0.882c-4.54 0.666-14.08-1.244-15.75 6.152 5.5 4.66 12.49-1.79 15.75-6.152zm-70.11 5.852c-7.44 11.39-16.66 33.39-0.98 42.3 16.01-10.27 3.32-31.06 0.98-42.3zm53.39 6.18c-3.64 0.13-7.13 1.11-8.36 5.21 5.14 5.03 12.55-0.91 16.1-5.03-1.99 0.15-4.91-0.28-7.74-0.18zm-13.89 9.4c-3.42 0.05-6.54 1.26-8.76 4.87 5.44 9.21 18.38 3.49 25.06-1.05-4.18-0.79-10.62-3.92-16.3-3.82zm-69.74 7.62c-1.77 13.5-0.52 37.31 17.48 38.54 9.96-16.21-10.49-29.43-17.48-38.54zm59.11 6.31c-6.51 0.17-12.52 2.14-15.24 9.36 9.72 10.94 25.64-0.08 33.42-7.92-4.66 0.02-11.68-1.62-18.18-1.44zm-85.44 12.91c0.71 17.43 7.57 47.18 31.13 44.85 9.3-22.61-20.07-34.85-31.13-44.85zm85.78 9.79c-11.33 1.91-35.3-2.35-39.06 16.29 14 11.38 31.15-5.2 39.06-16.29zm-107.44 26.88c4.63 19.86 18.94 52.56 44.81 44.79 5.41-27.96-30.22-35.7-44.81-44.79zm103.45 0.87c-14.72 3.23-46.4-0.79-50.1 23.9 19.11 13.99 40.46-8.86 50.1-23.9zm-2.69 18.94c-16.78 10.45-57.73 19.37-51.51 51.51 29.74 8.94 46.18-28.69 51.51-51.51zm-119.5 19.19c5.68 24.31 23.16 64.37 54.85 54.85 6.63-34.23-36.97-43.71-54.85-54.85zm116.99 25.93c-17.87 11.13-61.48 20.62-54.85 54.85 31.69 9.52 49.17-30.54 54.85-54.85z"/>
  </g>
  <g id="g6967" transform="matrix(.73266 0 0 .73266 20.627 59.882)">
    <use id="use23435" xlink:href="#g5032" transform="matrix(1.9803 0 0 1.9803 -491.13 -487.4)" height="359.88495" width="397.1575" y="0" x="0"/>
    <g id="g4187" transform="translate(-733.01 151.15)">
      <g id="g5099">
        <path id="path4043" style="fill:url(#linearGradient4079)" d="m981.13 273.09c-29.55-18.91-39.76-43.9-30.52-66.08 21.69 12.78 28.37-13.9 14.07-23.15 34.42-34.56 34.39-56.01 86.82-76.87 4.9 7.13 16.8-0.46 9.5-7.23 11-8.484 20.5-16.151 27.2-22.736 0.6 10.691-94.81 205.87-107.07 196.07z"/>
        <path id="path4045" style="fill:url(#radialGradient4076)" d="m981.75 272.98c12.71 3.28 106.15-185.97 106.45-195.96 1.4 14.346 1.5 32.42 0.1 51.86-16.3 1.42-12.9 21.27-2.6 24.29-1.9 13.73-3.3 18.01-6.7 31.36-15.2-5.05-32.1 15.67-7.7 31.31-8.6 15.66-19.4 36.09-33.8 49.52-14.4 13.39-32.5 19.82-55.75 7.62z"/>
        <path id="path4047" style="fill:url(#linearGradient4073)" d="m982.08 274.58c-9.75-5.58 84.92-142.38 106.62-197.25-16.1 61.09-101.53 200.16-106.62 197.25z"/>
      </g>
      <path id="path4057" style="filter:url(#filter7193);fill:url(#linearGradient4106)" d="m967.19 172.22c-0.64 0.28-1.26 0.56-1.91 0.84 0.42 0.6 0.79 1.2 1.13 1.82 0.2-0.9 0.45-1.8 0.78-2.66zm0.75 16.91c-3.08 10.94-15.41 17.81-27.28 2.34-19.14 19.41-18.99 50.01 4.06 82.47 0.28 0.5 0.74 0.8 1.37 0.94 5.09 5.83 10.36 10.17 15.72 13.25 0.21-0.12 0.42-0.26 0.57-0.47 25.97-29.41 47.62-71.42 30.56-96.07-11.04 11.51-20.88 6.57-25-2.46z"/>
      <g id="g4315">
        <path id="path3886" style="fill:url(#linearGradient4069)" d="m959.98 280.81c24.49-27.54 25.97-57.87 7.69-80.94-18.4 18.96-35.64-9.73-23.82-23.17-13.73-10.93-30.12-21.24-47.43-30.93-10.41 19.65-40.84 7.91-31.97-16.84-14.63-7.34-29.18-14.24-42.69-20.71-2.56 9.07-18.13 3-12.83-6.17-14.97-7.27-28.07-13.92-37.75-19.94 3.34 12.2 179.38 212.32 188.8 198.7z"/>
        <path id="path3890" style="fill:url(#radialGradient4066)" d="m959.27 280.81c-12.36 6.36-184.06-187.48-188.09-198.7 3.86 16.48 10.6 36.89 19.52 58.52 17.95-1.81 21.79 21.29 11.93 26.85 7.2 15.09 15.27 30.24 23.98 44.58 14.38-8.89 24.76 14.48 15.14 23.09 8.81 12.4 18.07 23.65 27.6 33.05 23.25-7.95 36.8 3.71 31.61 23.1 21.7 10.01 38.03 12.32 58.31-10.49z"/>
        <path id="path3888" style="fill:url(#linearGradient4063)" d="m959.52 282.68c-1.59-9.44-151.68-143.55-188.8-200.11 40.4 65.51 189.82 206.18 188.8 200.11z"/>
        <path id="path3732" style="filter:url(#filter7185);fill-opacity:.29508;fill:#000000" d="m74.94 316.09c-0.95 0.02-1.86 0.13-2.75 0.35-0.72 0.87-1.57 1.62-2.56 2.19 0.91 1.91 1.84 3.83 2.78 5.75 8 0.28 14.42 3.03 16.18-0.41 6.95 9.66 12.59 20.24 12 29.91-0.41 2.37-1.01 4.88-1.78 7.4 2.46-0.28 4.73 0.37 6.66 1.63 1.6-4.18 3.09-9.26 1.03-13.13-1.77-5.89-4.14-12.4-7.62-18.5 4.46 2.68 9.65 6.33 13.65 12.66-2-15.39-7.53-21.78-22.37-23.72-0.02 0.02-0.02 0.04-0.03 0.06-0.76-0.1-1.52-0.07-2.13 0.13-3.34-1.92-6.31-3.21-9-3.85-1.42-0.33-2.77-0.49-4.06-0.47zm58.59 27.91c-17.3 1.29-16.28 14.89-24.28 22.72 0.87 1.27 1.59 2.69 2.13 4.19 1.98-1.23 3.82-2.55 5.25-4.16 0.56-3.63 2.21-5.49 4.56-6.16-1.44 3.15 6.56 9.59 3.59 18.32 8.82-6.81 9.9-11.77 2.41-18.22 2.86 0.58 6.08 1.72 9.31 2.9-4.84 7.35 14.34 10.81 20.81 28.32 2.64-16.82-2.01-24.77-19.53-29.85-0.35 0.34-0.62 0.68-0.87 1-7.33-3.31-14.87-7.9-11.78-11.9 2.02-0.79 6.89-2.76 10.59-4.53 0.37 2.48 2.19 3.83 4.91 5.06-2.37-2.55-4.73-5.12-7.1-7.69zm-23.5 44.13c3.84 5.33 7.79 10.41 11.78 15.25 1.76-3.94 1.53-7.08-1-10 1.35 0.27 2.66 0.52 4.16 0.84-1.06 5.33 10.6 5.53 17.66 16.47-0.53-3.7-1.32-6.7-2.5-9.13 5.41 2.27 14.83 0.95 27.09 9.38-11.04-14.11-18.95-18.74-29.72-15.81-5.57-2.93-14.47-4.9-22.69-6.29-0.38-0.21-0.75-0.44-1.15-0.65-0.27 0.11-0.53 0.23-0.75 0.34-1.02-0.16-1.91-0.26-2.88-0.4z" transform="translate(733.01 -151.15)"/>
      </g>
      <path id="path3801" style="filter:url(#filter7189);fill:url(#linearGradient3832)" d="m152.28 404.81c-1.41 1-4.87 1.97-3.84 4.78 2.67 0.66 3.54-2.74 3.84-4.78zm-5.81 0.28c-0.99 1.61-1.88 4.49-0.5 6.38-0.2 0.31-0.41 0.67-0.63 1.06-1.02-2.18-3.24-4.33-4.15-5.84-0.53 2.55-0.16 6.92 2.72 8.84-0.32 0.82-0.57 1.65-0.75 2.47-1.7-2.17-4.03-4.26-5.19-5.78-0.18 3.04 0.96 8.29 4.78 10.62 0.05 1.22 0.23 2.45 0.47 3.69-3.38-3.08-8.12-5.69-10.72-7.75 1.42 4.8 5.91 12.95 12.72 14.6 0.53 1.44 1.12 2.96 1.75 4.5-4.59-3.41-11.8-4.4-16.13-5.88 4.07 4.6 12.02 11.8 18.19 10.88 0.92 2.23 1.85 4.58 2.75 7.06-5.43-5.73-17.23-5.45-24.25-6.85 6.05 5.75 16.98 14.49 25.6 10.72 1.04 3.25 1.97 6.73 2.68 10.47-4.47-6.77-18.82-4.28-27.37-4.94 6.68 5.94 17.6 14.45 27.94 8.25 1.61 10.98 1.21 24.21-3.79 40.79 1.72 3.68 6.94 0.44 4.88-3.07 1.82-5.61 3.02-10.85 3.72-15.75 10.51-2.2 16.5-11.09 14.94-23.72-3.01 5.46-11.73 10.75-14.35 17.91 0.22-3.19 0.26-6.23 0.1-9.12 7.55-3.21 12.04-12.59 9.87-20.5-0.91 4.24-7.41 7.84-10.78 12.56-0.45-2.66-1.05-5.17-1.72-7.6 6.13-0.39 6.89-10.61 5.25-16.93-1.29 2.53-6.1 5.25-7.59 9.65-0.97-2.61-2.01-5.08-3.03-7.47 6.49 1.21 5.25-7.32 3.37-12.46-1.21 1.94-5.44 3.9-5.5 7.65-3.9-8.85-7.05-16.42-5.37-24.19 1.78-3.08 2.26-5.65 1.65-5.93 0-0.01-0.03 0-0.03 0-0.35-1.55-1.26-3.21-1.53-4.32zm5.34 5.44c-0.56 0.39-1.52 0.73-2.31 1.25-1.01 0.67-1.73 1.6-1 3.22 2.69 0.85 3.22-2.45 3.31-4.47zm1.63 5.38c-1.28 0.44-3.79 0.49-5.22 1.5-0.86 0.6-1.3 1.56-0.75 3.18 4.14 2.25 5.5-1.97 5.97-4.68zm1.03 5.5c-1.04 0.81-3.13 1.46-4.56 2.65-1.46 1.19-2.22 2.93-0.38 5.91 5.81 2.11 5.58-4.5 4.94-8.56zm-24.63 54.5c4.93 7.28 13.79 17.84 26.75 9.37 3.06-12.55-16.36-8.52-26.75-9.37z" transform="translate(753.3 -246.01)"/>
      <path id="path4036" style="opacity:.78836;fill:url(#linearGradient4098)" d="m896.41 145.78c-0.21 0.38-0.41 0.74-0.63 1.1 34 27.03 46.64 67.72 49 126.28 8.24 6.7 13.72 9.77 15.19 7.65 0.13-0.15 0.27-0.29 0.41-0.43-0.84-28.87-5.35-55.36-14.54-78.38-3.26-3.24-5.38-8-5.78-12.84-5.47-10.75-12.17-20.58-20.18-29.38-7.51-4.8-15.38-9.47-23.47-14z"/>
      <g id="g3980" transform="translate(409.23 -66)">
        <path id="path3978" style="fill:url(#radialGradient4011)" d="m631.08 112.52c-59.76 39.68-78.55 111.48-80.65 229.39 0.78 10.88-15.63 12.48-15.35 1.58 2.05-111.14 27.56-199.11 93.91-236.84 20.17-11.47 16.25-3.53 2.09 5.87z"/>
        <path id="path3958" style="fill:url(#radialGradient4020)" d="m628.52 85.28c-6.07 5.78-14.7 17.64-6.56 25.19 11.03-3.9 6.38-18.12 6.56-25.19zm14.94 2.69c-5.6 3.05-14.31 10.12-9.81 17.28 8.89-0.69 8.28-12.12 9.81-17.28zm-31.84 5.44c-7.27 6.9-17.58 21.12-7.85 30.15 13.2-4.66 7.63-21.7 7.85-30.15zm46.22 0.9c-4.63 0.68-14.37-1.27-16.07 6.28 5.61 4.76 12.75-1.83 16.07-6.28zm-71.57 5.97c-7.6 11.63-17.01 34.09-1 43.19 16.34-10.49 3.39-31.71 1-43.19zm54.5 6.31c-3.71 0.14-7.27 1.14-8.53 5.32 5.25 5.14 12.81-0.93 16.44-5.13-2.04 0.15-5.02-0.29-7.91-0.19zm-14.18 9.6c-3.49 0.05-6.67 1.29-8.94 4.97 5.56 9.4 18.77 3.56 25.59-1.07-4.27-0.81-10.85-4-16.65-3.9zm-71.19 7.78c-1.81 13.78-0.53 38.09 17.84 39.34 10.17-16.54-10.71-30.04-17.84-39.34zm60.34 6.44c-6.64 0.17-12.78 2.19-15.56 9.56 9.93 11.17 26.18-0.09 34.12-8.09-4.75 0.02-11.92-1.65-18.56-1.47zm-87.22 13.18c0.72 17.79 7.73 48.17 31.78 45.79 9.49-23.08-20.49-35.58-31.78-45.79zm87.57 10c-11.57 1.95-36.04-2.4-39.88 16.63 14.3 11.61 31.8-5.31 39.88-16.63zm-109.69 27.44c4.73 20.27 19.34 53.65 45.75 45.72 5.52-28.54-30.85-36.44-45.75-45.72zm105.62 0.88c-15.03 3.3-47.37-0.8-51.15 24.4 19.51 14.29 41.31-9.04 51.15-24.4zm-2.75 19.34c-17.13 10.67-58.94 19.78-52.59 52.59 30.37 9.12 47.15-29.29 52.59-52.59zm-122 19.59c5.8 24.82 23.65 65.72 56 56 6.77-34.95-37.74-44.63-56-56zm119.44 26.47c-18.25 11.37-62.77 21.05-56 56 32.35 9.72 50.2-31.18 56-56z"/>
      </g>
      <g id="g3751">
        <g id="g3711" transform="matrix(.33393 -.16574 .16574 .33393 675.29 233.35)">
          <path id="path3713" style="fill:url(#radialGradient3759)" d="m628.1 118.53c-36.33 45.6 10.71 139.05-86.03 237.95-5.33 4.21-10.86-2.14-12.98-9.98 107.05-114.09 47.02-196.58 96.92-233.85 18.59-13.88 16.24-3.52 2.09 5.88z"/>
          <path id="path3715" style="fill:url(#radialGradient3761)" d="m628.98 85.53c-5 6.36-10.18 20.09-1.26 28.07 8.38-5.34 1.86-20.58 1.26-28.07zm14.55 2.48c-5.22 3.26-12.35 11.18-7.12 18.74 7.69-1.35 5.93-13.4 7.12-18.74zm-28.98 6.99c-4.73 8.29-8.77 25.91 2.85 35.97 8.79-7.06-0.98-26.38-2.85-35.97zm43.29-0.69c-4.57 0.71-14.05-1.1-14.93 6.9 5.62 4.77 11.76-2.37 14.93-6.9zm-64.26 9.94c-2.52 14.4-1.02 42.77 17.38 53.17 8.51-14.74-10.95-39.5-17.38-53.17zm49.26 3.47c-3.21 0.4-6.08 1.79-6.25 6.55 5.45 5.25 10.65-2.1 13.28-6.84-1.81 0.28-4.5-0.01-7.03 0.29zm-9.81 11.97c-2.77 0.44-4.95 2.23-5.57 6.8 7.28 10.33 15.53 1.8 19.88-4.17-3.61-0.46-9.66-3.35-14.31-2.63zm-59.13 14.33c4.65 17.29 16.63 47.42 34.97 48.65 1.98-20.98-23.34-36.9-34.97-48.65zm55.27 3.68c-4.92 1.11-8.81 4.35-7.93 13.71 11.44 12 18.71-4.14 22.01-14.67-3.46 0.72-9.22-0.18-14.08 0.96zm-76.46 19.04c7.93 21.7 24.55 57.31 51.19 56.32 2.94-26.63-33.41-42.6-51.19-56.32zm84.81 8.5c-7.1 4.37-27.6 2.18-23.63 25.45 14.57 11.76 21.99-10.64 23.63-25.45zm-102.01 31.61c9.14 22.66 25.7 57.1 59.21 53.03 7.6-27.41-37-39.78-59.21-53.03zm107.15 1.7c-8.93 6.62-36.19 5.28-36.76 32.23 16.61 12.71 32.85-13.64 36.76-32.23zm3.13 37.4c-11.09 13.95-52.07 8.66-54.66 36.62 23.95 5.62 50.02-12.88 54.66-36.62zm-126.64 2.41c3.15 23.38 11.81 59.28 53.06 54.4 22.32-26.5-29.12-39.95-53.06-54.4zm123.22 30.99c-17.19 11.93-55.69 12.51-64.3 39.11 27.91 7.3 52.99-6.9 64.3-39.11z"/>
        </g>
      </g>
      <g id="g4163">
        <path id="path4135" style="fill:url(#radialGradient6621)" d="m802-3c0 27.06-21.94 49-49 49s-49-21.94-49-49 21.94-49 49-49 49 21.94 49 49z" transform="matrix(1.6327 0 0 .39950 -286.39 307.97)"/>
        <path id="path4124" style="fill:url(#radialGradient4133)" d="m1014 298c0 18.77-30.46 17-68 17s-68 1.77-68-17 12.46-46 50-46 86 27.23 86 46z"/>
        <path id="path5093" style="fill:url(#linearGradient5097)" d="m1014 307.56c0 8.24-11 7.46-24.51 7.46-6.65 0-6.67-0.16-11.08-0.95 6.57-14.54 18.25-18.91 21.56-18.94 13.53 0 14.03 4.19 14.03 12.43z"/>
        <path id="path7201" style="filter:url(#filter7230);fill-opacity:.20219;fill:#000000" d="m127 449.16c0 9.4 7.65 13.64 20.01 15.53 4.27-17.54-9.35-24.11-18.92-22.88-1.47 3.71-1.2 3.42-1.09 7.35z" transform="translate(751.01 -151.15)"/>
      </g>
      <g id="g4167" transform="matrix(.43125 0 0 .59345 457.83 137.16)">
        <path id="path4169" style="fill:url(#radialGradient6611)" d="m802-3c0 27.06-21.94 49-49 49s-49-21.94-49-49 21.94-49 49-49 49 21.94 49 49z" transform="matrix(1.6327 0 0 .30785 -286.39 308.69)"/>
        <path id="path4171" style="fill:url(#radialGradient6613)" d="m1014 298c0 18.77-30.46 17-68 17s-68 1.77-68-17 39.37-38.92 76.9-38.92c37.54 0 59.1 20.15 59.1 38.92z"/>
        <path id="path4710" style="fill:url(#radialGradient4712)" d="m1006.6 333.98c0 6.62-28.47 11.99-63.6 11.99s-63.6-5.37-63.6-11.99 28.47-11.99 63.6-11.99 63.6 5.37 63.6 11.99z"/>
      </g>
    </g>
    <g id="g5032" transform="translate(-661.71 159.15)">
      <path id="path6617" style="fill:url(#radialGradient6621)" d="m802-3c0 27.06-21.94 49-49 49s-49-21.94-49-49 21.94-49 49-49 49 21.94 49 49z" transform="matrix(-1.1122 0 0 .22795 1817.5 319.98)"/>
      <path id="path6619" style="fill:url(#radialGradient6634)" d="m931.63 308.24c0 17.6 20.75 15.94 46.33 15.94 25.54 0 46.34 1.66 46.34-15.94 0-17.59-41.69-25.17-67.26-25.17s-25.41 7.58-25.41 25.17z"/>
      <path id="path6445" style="fill:url(#linearGradient6447)" d="m952.83 320.89c-0.56-5.05-1.51-10.04-2.1-15.09-1.04-8.64-0.95-17.36-0.45-26.03 1.06-13.02 7.42-24.57 13.06-36.08 5.1-9.47 9.24-19.37 12.8-29.51 0.85-2.43 4.49-1.62 3.55 0.78-3.94 10.08-8.48 19.89-13.04 29.71-5.07 11.15-10.37 22.54-11.48 34.9-0.39 8.38 0.01 16.79 1 25.12 0.76 4.65 1.61 9.34 3.43 13.7 1.95 4.71-6.2 7.57-6.77 2.5z"/>
      <g id="g6497" transform="matrix(.64969 -.22428 .22428 .64969 193.45 395.22)">
        <path id="path6499" style="fill:url(#linearGradient3557)" d="m1161 122.43c0.4-7.91 12.2-35.35 19.8-29.77 7 5.11-11.3 27.46-19.8 29.77z"/>
        <path id="path6501" style="fill:url(#linearGradient3559)" d="m1163.9 124.09c1.8-6.54 24.1-33.41 30-24.65 7.1 10.32-20.4 25.44-30 24.65z"/>
        <path id="path6503" style="fill:url(#linearGradient7022)" d="m1165.6 126.73c2.8-6.96 33.7-23.42 36.2-12.73 2.4 9.66-28.1 15.97-36.2 12.73z"/>
        <path id="path6505" style="fill:url(#linearGradient3563)" d="m1195.3 145.6c-12.3-3.31-30.2-10.78-29.3-13.87 0.8-3.09 20-0.64 32.3 2.67 12.4 3.31 13.3 6.24 12.4 9.33-0.8 3.09-3 5.18-15.4 1.87z"/>
        <path id="path6507" style="fill:url(#linearGradient3565)" d="m1175.7 174.19c-7.9-13.57-16.8-35.48-13.5-37.44 3.4-1.96 17.9 16.78 25.8 30.34 7.8 13.57 6 16.86 2.6 18.81-3.4 1.96-7.1 1.86-14.9-11.71z"/>
        <path id="path6509" style="fill:url(#linearGradient3567)" d="m1142 166.93c3.3-12.37 10.8-30.21 13.9-29.39 3.1 0.83 0.6 20.02-2.7 32.39-3.3 12.36-6.2 13.23-9.3 12.4-3.1-0.82-5.2-3.04-1.9-15.4z"/>
        <path id="path6511" style="fill:url(#linearGradient3569)" d="m1118.7 147.9c11.2-6.74 29.7-14.79 31.8-12.27 2.1 2.51-13 14.64-24.2 21.38s-14.3 5.54-16.4 3.02c-2.1-2.51-2.4-5.39 8.8-12.13z"/>
        <path id="path6531" style="fill:url(#linearGradient7038)" d="m1120.5 133.21c11-2.43 28.4-4.09 29.5-1.67 1.2 2.43-12.3 8.93-23.3 11.35-11 2.43-15.5-0.14-16.6-2.57-1.1-2.42-0.7-4.69 10.4-7.11z"/>
        <path id="path6533" style="fill:url(#linearGradient3573)" d="m1126.8 119.77c9.6 1.75 23.5 6.31 23.1 8.7-0.5 2.39-15.1 1.7-24.7-0.05-9.5-1.75-10.4-3.91-9.9-6.3 0.4-2.38 2-4.1 11.5-2.35z"/>
        <path id="path6535" style="fill:url(#linearGradient3575)" d="m1157.5 123.52c-2.4-7.44-0.9-36.76 8.1-34.22 8.2 2.32-1.1 29.18-8.1 34.22z"/>
        <path id="path6537" style="fill:url(#linearGradient3577)" d="m1152.9 123.58c-9.5 0.63-30-24.61-19.4-29.25 8.2-3.62 20.5 20.68 19.4 29.25z"/>
        <path id="path6515" style="fill:url(#linearGradient3579)" d="m1132.2 109.5c8.4 4.89 19.9 13.9 18.7 15.99s-16-2.54-24.3-7.42c-8.4-4.89-7.2-8.18-6-10.27s3.3-3.18 11.6 1.7z"/>
        <path id="path6517" style="fill:url(#linearGradient3581)" d="m1155.4 121.95c-6.5-2.85-15.8-29.12-7.6-31.31 12.8-3.43 13.6 24.24 7.6 31.31z"/>
        <path id="path6519" style="fill:url(#linearGradient6547)" d="m1188.2 160.53c-11-8.17-24.1-23.22-22.1-26.06s20 7.1 30.9 15.27c11 8.17 10.8 11.5 8.8 14.34s-6.7 4.63-17.6-3.55z"/>
        <path id="path6521" style="fill:url(#linearGradient3585)" d="m1154.7 172.22c-1.4-15.45 1.8-32.87 5.1-33.18 3.4-0.32 7.5 16.42 8.9 31.88 1.5 15.45-2.2 15.55-5.5 15.86-3.4 0.32-7 0.9-8.5-14.56z"/>
        <path id="path6523" style="fill:url(#linearGradient3587)" d="m1193.4 131.93c-10.8 0.52-27.1-0.89-27.2-3.59-0.1-2.71 16-5.68 26.8-6.2s12.2 1.61 12.4 4.31c0.1 2.7-1.1 4.96-12 5.48z"/>
        <path id="path6525" style="fill:url(#linearGradient3589)" d="m1129.2 158.08c8.7-11.5 23.9-26.97 26.8-24.81 2.8 2.16-7.8 21.13-16.4 32.62-8.6 11.5-12 11.19-14.9 9.03-2.8-2.16-4.1-5.35 4.5-16.84z"/>
        <path id="path6527" style="fill:url(#linearGradient3591)" d="m1349.4 342c0 23.75-15.4 43-34.4 43s-34.4-19.25-34.4-43 15.4-43 34.4-43 34.4 19.25 34.4 43z" transform="matrix(.45040 0 0 .32294 566.57 20.594)"/>
        <path id="path6529" style="fill:url(#linearGradient3593)" d="m1349.4 342c0 23.75-15.4 43-34.4 43s-34.4-19.25-34.4-43 15.4-43 34.4-43 34.4 19.25 34.4 43z" transform="matrix(.27297 0 0 .15332 799.89 73.591)"/>
      </g>
      <path id="path6625" style="fill-opacity:.19672;fill:#000000" d="m962.91 283.22c-2.85 8.15-5.34 16.32-6.78 24.44-0.92 5.05-1.44 10.04-2.38 15.09-0.08 0.43-0.08 0.8-0.03 1.13 1.78 0.12 3.63 0.2 5.56 0.25 1.24-0.94 2.16-2.29 1.97-3.88-0.52-4.36 0.04-9.05 0.66-13.69 1.36-7.65 3.28-15.39 5.81-23.09-1.63-0.12-3.25-0.19-4.81-0.25z"/>
      <g id="g6577" transform="matrix(.11023 .10458 -.074982 .079032 841.01 146.08)">
        <path id="path6565" style="fill:url(#linearGradient6582)" d="m1174.4 245.88c-66-107.64 136.6-139.16 195.9-160.82-3.9 11.54-187.2 176.33-195.9 160.82z"/>
        <path id="path6567" style="fill:url(#radialGradient3601)" d="m1175.1 246.02c11.9 8.84 190.7-150.55 195.2-160.96-23 66.87-88.9 155.97-133.4 176.61-20.8 7.97-42.5 7.05-61.8-15.65z"/>
      </g>
      <g id="g6588" transform="matrix(-.14533 0 0 .10894 1129.1 239.88)">
        <path id="path6590" style="fill:url(#linearGradient3599)" d="m1174.4 245.88c-65.6-107.35 134.6-138.43 195.9-160.82-3.9 11.54-187.2 176.33-195.9 160.82z"/>
        <path id="path6592" style="fill:url(#radialGradient6596)" d="m1175.1 246.02c11.9 8.84 190.7-150.55 195.2-160.96-25.8 73.48-123.3 228.43-195.2 160.96z"/>
      </g>
      <g id="g3682">
        <path id="path3522" style="fill-opacity:.17486;fill:#000000" d="m278.22 530.09c-0.71 0.15-1.4 0.3-2.03 0.47-2.03 5.93-2.26 12.24-1.31 18.35 0.26 1.73 4.59 1.04 3.9-0.57-0.99-3.35-1.45-6.84-1.56-10.34-0.16-2.73 0.28-5.36 1-7.91z" transform="translate(666 -246.01)"/>
        <path id="path3370" style="fill:url(#linearGradient3635)" d="m941.62 302.89c1.17-7.53 0.58-15.35-3-22.41-2.29-5.1-5.25-9.94-6.84-15.33-2.64-1.21-0.01 3.57 0.45 4.58 3.09 7.11 7.51 14.2 7.04 22.25-0.1 3.5-0.56 6.99-1.55 10.35-0.69 1.6 3.64 2.29 3.9 0.56z"/>
        <g id="g3372" transform="matrix(.19762 -.056446 .049992 .16351 696.6 309.85)">
          <path id="path3374" style="fill:url(#linearGradient3557)" d="m1161 122.43c0.4-7.91 12.2-35.35 19.8-29.77 7 5.11-11.3 27.46-19.8 29.77z"/>
          <path id="path3376" style="fill:url(#linearGradient3559)" d="m1163.9 124.09c1.8-6.54 24.1-33.41 30-24.65 7.1 10.32-20.4 25.44-30 24.65z"/>
          <path id="path3378" style="fill:url(#linearGradient3561)" d="m1165.6 126.73c2.8-6.96 33.7-23.42 36.2-12.73 2.4 9.66-28.1 15.97-36.2 12.73z"/>
          <path id="path3380" style="fill:url(#linearGradient3563)" d="m1195.3 145.6c-12.3-3.31-30.2-10.78-29.3-13.87 0.8-3.09 20-0.64 32.3 2.67 12.4 3.31 13.3 6.24 12.4 9.33-0.8 3.09-3 5.18-15.4 1.87z"/>
          <path id="path3382" style="fill:url(#linearGradient3565)" d="m1175.7 174.19c-7.9-13.57-16.8-35.48-13.5-37.44 3.4-1.96 17.9 16.78 25.8 30.34 7.8 13.57 6 16.86 2.6 18.81-3.4 1.96-7.1 1.86-14.9-11.71z"/>
          <path id="path3384" style="fill:url(#linearGradient3567)" d="m1142 166.93c3.3-12.37 10.8-30.21 13.9-29.39 3.1 0.83 0.6 20.02-2.7 32.39-3.3 12.36-6.2 13.23-9.3 12.4-3.1-0.82-5.2-3.04-1.9-15.4z"/>
          <path id="path3386" style="fill:url(#linearGradient3569)" d="m1118.7 147.9c11.2-6.74 29.7-14.79 31.8-12.27 2.1 2.51-13 14.64-24.2 21.38s-14.3 5.54-16.4 3.02c-2.1-2.51-2.4-5.39 8.8-12.13z"/>
          <path id="path3388" style="fill:url(#linearGradient3571)" d="m1120.5 133.21c11-2.43 28.4-4.09 29.5-1.67 1.2 2.43-12.3 8.93-23.3 11.35-11 2.43-15.5-0.14-16.6-2.57-1.1-2.42-0.7-4.69 10.4-7.11z"/>
          <path id="path3390" style="fill:url(#linearGradient3573)" d="m1126.8 119.77c9.6 1.75 23.5 6.31 23.1 8.7-0.5 2.39-15.1 1.7-24.7-0.05-9.5-1.75-10.4-3.91-9.9-6.3 0.4-2.38 2-4.1 11.5-2.35z"/>
          <path id="path3392" style="fill:url(#linearGradient3575)" d="m1157.5 123.52c-2.4-7.44-0.9-36.76 8.1-34.22 8.2 2.32-1.1 29.18-8.1 34.22z"/>
          <path id="path3394" style="fill:url(#linearGradient3577)" d="m1152.9 123.58c-9.5 0.63-30-24.61-19.4-29.25 8.2-3.62 20.5 20.68 19.4 29.25z"/>
          <path id="path3396" style="fill:url(#linearGradient3579)" d="m1132.2 109.5c8.4 4.89 19.9 13.9 18.7 15.99s-16-2.54-24.3-7.42c-8.4-4.89-7.2-8.18-6-10.27s3.3-3.18 11.6 1.7z"/>
          <path id="path3398" style="fill:url(#linearGradient3581)" d="m1155.4 121.95c-6.5-2.85-15.8-29.12-7.6-31.31 12.8-3.43 13.6 24.24 7.6 31.31z"/>
          <path id="path3400" style="fill:url(#linearGradient3583)" d="m1188.2 160.53c-11-8.17-24.1-23.22-22.1-26.06s20 7.1 30.9 15.27c11 8.17 10.8 11.5 8.8 14.34s-6.7 4.63-17.6-3.55z"/>
          <path id="path3402" style="fill:url(#linearGradient3585)" d="m1154.7 172.22c-1.4-15.45 1.8-32.87 5.1-33.18 3.4-0.32 7.5 16.42 8.9 31.88 1.5 15.45-2.2 15.55-5.5 15.86-3.4 0.32-7 0.9-8.5-14.56z"/>
          <path id="path3404" style="fill:url(#linearGradient3587)" d="m1193.4 131.93c-10.8 0.52-27.1-0.89-27.2-3.59-0.1-2.71 16-5.68 26.8-6.2s12.2 1.61 12.4 4.31c0.1 2.7-1.1 4.96-12 5.48z"/>
          <path id="path3406" style="fill:url(#linearGradient3589)" d="m1129.2 158.08c8.7-11.5 23.9-26.97 26.8-24.81 2.8 2.16-7.8 21.13-16.4 32.62-8.6 11.5-12 11.19-14.9 9.03-2.8-2.16-4.1-5.35 4.5-16.84z"/>
          <path id="path3408" style="fill:url(#linearGradient3591)" d="m1349.4 342c0 23.75-15.4 43-34.4 43s-34.4-19.25-34.4-43 15.4-43 34.4-43 34.4 19.25 34.4 43z" transform="matrix(.45040 0 0 .32294 566.57 20.594)"/>
          <path id="path3410" style="fill:url(#linearGradient3593)" d="m1349.4 342c0 23.75-15.4 43-34.4 43s-34.4-19.25-34.4-43 15.4-43 34.4-43 34.4 19.25 34.4 43z" transform="matrix(.27297 0 0 .15332 799.89 73.591)"/>
        </g>
        <g id="g3420" transform="matrix(-.052020 0 0 .038996 999.81 281.89)">
          <path id="path3422" style="fill:url(#linearGradient3599)" d="m1174.4 245.88c-65.6-107.35 134.6-138.43 195.9-160.82-3.9 11.54-187.2 176.33-195.9 160.82z"/>
          <path id="path3424" style="fill:url(#radialGradient3601)" d="m1175.1 246.02c11.9 8.84 190.7-150.55 195.2-160.96-25.8 73.48-123.3 228.43-195.2 160.96z"/>
        </g>
      </g>
      <g id="g6598" transform="matrix(.43125 0 0 .59345 523.33 142.21)">
        <path id="path6600" style="fill:url(#radialGradient6611)" d="m802-3c0 27.06-21.94 49-49 49s-49-21.94-49-49 21.94-49 49-49 49 21.94 49 49z" transform="matrix(1.6327 0 0 .55102 -286.39 304.65)"/>
        <path id="path6602" style="fill:url(#radialGradient6613)" d="m1014 298c0 18.77-30.46 17-68 17s-68 1.77-68-17 22.32-27.34 53.71-42.29c37.54-17.87 82.29 23.52 82.29 42.29z"/>
      </g>
    </g>
    <g id="g3622" transform="translate(176,-319)">
      <path id="path3541" style="fill:url(#radialGradient5719)" d="m-78.28 622.87c8.35 8.74 12.88 22.44 15.77 34.47 3.96 8.7-5.16 27.57-3.02 28.73 14.98-12.74 9.36-36.87 30.54-45.32 16.71-9.58-4.09 8.48-8.88 12.49-6.45 13.3 33.6 15.4 20.88 14.37-11.55-0.3-27.36-8.73-29.38 9.25-6.31 11.58-12.86 15.79-13.6 29.57-0.08 1.4 30.04-4.91 38.4 4.42-50.52 0.03-36.53 2.86-35.51 4.26 7.41 10.19 12.54 22.57 6.29 36.23-5.66 11.64 38.85 34.76 32.32 50.1 1.42 7.43-27.55 13.83-34.07-0.23 9.79-12.19 9.28-31.87-7.28-37.69-3.35-11.44 4.18-32.2-2.86-44.56-13.45-10.44-32.83-11.13-33.79-31.76 10.43-10.22 12.77 20.99 26.8 20.6 7.28-10.61 5.33-27.88 7.25-43.1 0.64-14.31-6.07-27.72-13.83-39.09 0.41-1.76 2.3-2.71 3.97-2.74z"/>
      <path id="path3578" style="fill:url(#radialGradient3639)" d="m-11.68 697.72c2.64-23.42-2.02-32.6-19.53-33.83-8.76 14.17 12.62 10.96 19.53 33.83z"/>
      <path id="path3582" style="fill:url(#radialGradient3641)" d="m-44.22 690.6c9.67-13.1 10.06-20.2 0-26.99-10.13 5.46 3.77 10.92 0 26.99z"/>
      <path id="path3586" style="fill:url(#radialGradient3643)" d="m-5.59 659.37c-6.79-18.94-13.8-24.23-27.69-18.59-1.39 14.16 13.79 3.66 27.69 18.59z"/>
      <path id="path3590" style="fill:url(#radialGradient3645)" d="m-108.8 640.93c8.04-18.44 15.4-23.23 28.88-16.67 0.42 14.21-14.02 2.71-28.88 16.67z"/>
      <path id="path3598" style="fill:url(#radialGradient3647)" d="m-80.38 713.27c2.25-19.99-1.72-27.82-16.68-28.88-7.47 12.1 10.78 9.36 16.68 28.88z"/>
      <path id="path3594" style="fill:url(#radialGradient3649)" d="m-128.39 703.29c8.04-18.44 15.4-23.24 28.88-16.68 0.42 14.22-14.01 2.72-28.88 16.68z"/>
      <path id="path3574" style="fill:url(#radialGradient3651)" d="m-56.46 647.55c-2.01-20.01-7.54-26.83-22.38-24.72-4.76 13.4 12.5 6.88 22.38 24.72z"/>
      <path id="path3606" style="fill:url(#radialGradient3653)" d="m-1.78 720.09c-11.71-16.36-19.9-19.52-31.72-10.3 2.54 13.99 14.27-0.26 31.72 10.3z"/>
      <path id="path3602" style="fill:url(#radialGradient3655)" d="m-26.37 727.63c-1.68-15.17-5.92-20.29-17.16-18.58-3.51 10.2 9.53 5.13 17.16 18.58z"/>
      <path id="path3610" style="fill:url(#radialGradient3657)" d="m-136.75 693.22c11.71-16.36 19.9-19.52 31.72-10.3-2.54 13.99-14.27-0.26-31.72 10.3z"/>
      <path id="path3612" style="fill:url(#radialGradient3659)" d="m-112.16 700.76c1.67-15.17 5.92-20.29 17.16-18.58 3.51 10.2-9.54 5.13-17.16 18.58z"/>
      <path id="path3618" style="fill:url(#radialGradient3661)" d="m-49.78 731.3c6.13-13.97 5.01-20.54-5.58-24.67-8.13 7.08 5.7 9.21 5.58 24.67z"/>
    </g>
    <g id="g5721" transform="matrix(-.4125 0 0 .41549 510.49 363.23)">
      <path id="path5723" style="fill:url(#radialGradient5727)" d="m967.24 303c0 14.91-28.22 27-63.03 27s-63.03-12.09-63.03-27 28.22-27 63.03-27 63.03 12.09 63.03 27z"/>
      <path id="path5725" style="fill:url(#radialGradient5729)" d="m960.15 298c0 18.77-24 17-53.57 17-29.58 0-53.58 1.77-53.58-17s-10.78-18.83 13.96-33.78c29.57-17.87 93.19 15.01 93.19 33.78z"/>
    </g>
  </g>
  <path id="path10703" style="opacity:.55556;stroke:url(#radialGradient22323);fill:url(#radialGradient22321)" d="m211.83 329.19c29.84 0 54.06-24.22 54.06-54.06s-24.22-54.06-54.06-54.06c-29.85 0-54.07 24.22-54.07 54.06s24.22 54.06 54.07 54.06zm0-10.14c-24.25 0-43.94-19.67-43.94-43.92s19.69-43.92 43.94-43.92 43.93 19.67 43.93 43.92-19.68 43.92-43.93 43.92z"/>
  <path id="path10720" style="fill:url(#radialGradient22317)" d="m281.65 242.72c11.36 0 20.57-9.22 20.57-20.57 0-11.36-9.21-20.57-20.57-20.57s-20.57 9.21-20.57 20.57c0 11.35 9.21 20.57 20.57 20.57zm0-3.86c-9.23 0-16.72-7.49-16.72-16.71 0-9.23 7.49-16.72 16.72-16.72s16.72 7.49 16.72 16.72c0 9.22-7.49 16.71-16.72 16.71z"/>
  <path id="path10910" style="opacity:.91534;fill:url(#radialGradient22314)" d="m267.3 235.86c0 5.85-4.74 10.59-10.59 10.59-5.84 0-10.58-4.74-10.58-10.59 0-5.84 4.74-10.58 10.58-10.58 5.85 0 10.59 4.74 10.59 10.58z"/>
  <path id="path23339" style="opacity:.55556;stroke:url(#radialGradient23343);fill:url(#radialGradient23341)" d="m145.83 331.2c10.52 0 19.06-8.55 19.06-19.07s-8.54-19.07-19.06-19.07c-10.53 0-19.07 8.55-19.07 19.07s8.54 19.07 19.07 19.07zm0-3.58c-8.56 0-15.5-6.94-15.5-15.49s6.94-15.49 15.5-15.49c8.55 0 15.49 6.94 15.49 15.49s-6.94 15.49-15.49 15.49z"/>
  <metadata>
    <rdf:RDF>
      <cc:Work>
        <dc:format>image/svg+xml</dc:format>
        <dc:type rdf:resource="http://purl.org/dc/dcmitype/StillImage"/>
        <cc:license rdf:resource="http://creativecommons.org/licenses/publicdomain/"/>
        <dc:publisher>
          <cc:Agent rdf:about="http://openclipart.org/">
            <dc:title>Openclipart</dc:title>
          </cc:Agent>
        </dc:publisher>
        <dc:title>plants pebbles and flowers</dc:title>
        <dc:date>2007-02-11T17:21:22</dc:date>
        <dc:description>made to develop a concept for fedora.</dc:description>
        <dc:source>https://openclipart.org/detail/3182/plants-pebbles-and-flowers-by-andy</dc:source>
        <dc:creator>
          <cc:Agent>
            <dc:title>Andy</dc:title>
          </cc:Agent>
        </dc:creator>
        <dc:subject>
          <rdf:Bag>
            <rdf:li>fern</rdf:li>
            <rdf:li>flower</rdf:li>
            <rdf:li>green</rdf:li>
            <rdf:li>illustration</rdf:li>
            <rdf:li>nature</rdf:li>
            <rdf:li>pebbles</rdf:li>
            <rdf:li>plant</rdf:li>
            <rdf:li>vines</rdf:li>
            <rdf:li>water</rdf:li>
          </rdf:Bag>
        </dc:subject>
      </cc:Work>
      <cc:License rdf:about="http://creativecommons.org/licenses/publicdomain/">
        <cc:permits rdf:resource="http://creativecommons.org/ns#Reproduction"/>
        <cc:permits rdf:resource="http://creativecommons.org/ns#Distribution"/>
        <cc:permits rdf:resource="http://creativecommons.org/ns#DerivativeWorks"/>
      </cc:License>
    </rdf:RDF>
  </metadata>
</svg>
